<?xml version="1.0" encoding="UTF-8"?>
<svg width="29px" height="29px" viewBox="0 0 29 29" version="1.1" xmlns="http://www.w3.org/2000/svg" xmlns:xlink="http://www.w3.org/1999/xlink">
    <!-- Generator: Sketch 52.5 (67469) - http://www.bohemiancoding.com/sketch -->
    <title>google-icon</title>
    <desc>Created with Sketch.</desc>
    <g id="Homepage" stroke="none" stroke-width="1" fill="none" fill-rule="evenodd">
        <g id="Thirdvote-Homepage" transform="translate(-621.000000, -410.000000)" fill-rule="nonzero">
            <g id="Google-Light" transform="translate(607.000000, 393.000000)">
                <g id="google-icon" transform="translate(14.000000, 17.000000)">
                    <path d="M28.9861797,14.7712939 C28.9861797,13.5831794 28.8875117,12.7161679 28.6739766,11.8170573 L14.7888672,11.8170573 L14.7888672,17.1796221 L22.9391133,17.1796221 C22.7748555,18.5122939 21.8875234,20.519271 19.9156367,21.8678817 L19.8879961,22.047416 L24.2782109,25.3705725 L24.5823711,25.4002366 C27.3757734,22.8794504 28.9861797,19.1705496 28.9861797,14.7712939" id="Shape" fill="#4285F4"></path>
                    <path d="M14.7888672,28.9003817 C18.7818047,28.9003817 22.1339102,27.6158588 24.5823711,25.4002366 L19.9156367,21.8678817 C18.6668242,22.7188435 16.9907148,23.3129008 14.7888672,23.3129008 C10.8780586,23.3129008 7.55880469,20.7922252 6.37558203,17.3081298 L6.20214844,17.3225191 L1.63714063,20.7745153 L1.57744141,20.9366718 C4.00936328,25.6570305 9.00472656,28.9003817 14.7888672,28.9003817" id="Shape" fill="#34A853"></path>
                    <path d="M6.37558203,17.3081298 C6.06337891,16.4090191 5.88269531,15.4455992 5.88269531,14.4501908 C5.88269531,13.4546718 6.06337891,12.4913626 6.35915625,11.5922519 L6.35088672,11.4007634 L1.72867187,7.89331298 L1.57744141,7.96359924 C0.575128906,9.92242748 0,12.1221107 0,14.4501908 C0,16.778271 0.575128906,18.9778435 1.57744141,20.9366718 L6.37558203,17.3081298" id="Shape" fill="#FBBC05"></path>
                    <path d="M14.7888672,5.58737023 C17.5658438,5.58737023 19.4390625,6.75943511 20.5071914,7.73890458 L24.6809258,3.75704962 C22.1175977,1.42896947 18.7818047,0 14.7888672,0 C9.00472656,0 4.00936328,3.24324046 1.57744141,7.96359924 L6.35915625,11.5922519 C7.55880469,8.10815649 10.8780586,5.58737023 14.7888672,5.58737023" id="Shape" fill="#EB4335"></path>
                </g>
            </g>
        </g>
    </g>
</svg>